<?xml version="1.0" encoding="utf-8"?>
<!-- Generator: Adobe Illustrator 19.2.1, SVG Export Plug-In . SVG Version: 6.00 Build 0)  -->
<svg version="1.1" baseProfile="basic" id="katman_1"
	 xmlns="http://www.w3.org/2000/svg" xmlns:xlink="http://www.w3.org/1999/xlink" x="0px" y="0px" viewBox="0 0 50 10"
	 xml:space="preserve">
<g>
	<path d="M2.0999999,6.399971c0,1.2999997,1,1.7999992,2.2999997,1.7999992c1.4000001,0,1.9000001-0.6999993,1.9000001-1.2999997
		c0-0.6999998-0.4000001-0.9000001-0.6999998-1.0999999C4.8000002,5.6999707,4,5.4999709,2.8,5.1999707
		c-1.5-0.4000001-2-1.3000002-2-2.2000003c0-1.7,1.6000001-2.5,3.3-2.5c1.9000001,0,3.4000001,1,3.4000001,2.7H5.9000001
		c0-1.0999999-0.8000002-1.4999998-1.9000001-1.4999998c-0.7,0-1.5999999,0.3-1.5999999,1.0999999
		c0,0.6000001,0.4000001,0.8999999,1.0999999,1.1000001c0.0999999,0.0999999,2.0999999,0.6000001,2.5,0.7
		C7.1999998,4.9999709,7.8000002,5.899971,7.8000002,6.7999711c0,1.8999991-1.8000002,2.6999993-3.5,2.6999993
		c-2,0-3.7-0.8999996-3.7-3.0999994H2.0999999z"/>
	<path d="M9.3999996,6.4999709c0,1,0.5,1.7999997,1.6999998,1.7999997c0.8000002,0,1.3000002-0.2999997,1.6000004-0.9999995H14
		c-0.3000002,1.3999991-1.5,2.099999-2.8999996,2.099999C9.1000004,9.4999704,8,8.0999708,8,6.1999707
		c0-1.8000002,1.1999998-3.3000002,3.1000004-3.3000002c2,0,3.3000002,1.8000002,3,3.6000004H9.3999996z M12.6999998,5.5999708
		c0-0.9000001-0.6999998-1.6000001-1.6000004-1.6000001c-1,0-1.6999998,0.7-1.6999998,1.6000001H12.6999998z"/>
	<path d="M18,8.2999706c0.6000004-0.1000004,1.1000004-0.5999994,1.2000008-1.3999996h1.3999996
		C20.3999996,8.3999701,19.3999996,9.2999706,18,9.3999701V8.2999706z M19.2000008,5.1999707
		c-0.1000004-0.7999997-0.7000008-1.2-1.5-1.2C17,3.9999707,16,4.399971,16,6.2999711
		c0,0.9000001,0.2999992,1.7999997,1.2000008,2.099999v1.1000004c-1.6999998-0.1999998-2.6000004-1.4999995-2.6000004-3.1999993
		c0-1.9000001,1.1000004-3.3000002,3.2000008-3.3000002c1.5,0,2.7999992,0.7,2.8999996,2.2000003
		C20.7000008,5.1999712,19.2000008,5.1999712,19.2000008,5.1999707z"/>
	<path d="M21.2000008,0.6999707h1.3999996v1.3h-1.3999996V0.6999707z M21.2000008,3.0999706h1.3999996v6.1999989h-1.3999996
		V3.0999706z"/>
	<rect x="23.2999992" y="0.6999707" width="1.3999996" height="8.6000004"/>
</g>
<g>
	<path d="M31.5175781,5.4655762C31.2529297,5.3054199,30.9375,5.1745605,30.5791016,5.0778809
		c-0.3867188-0.1040039-0.7587891-0.2026367-1.1376953-0.3007812c-0.3496094-0.0834961-0.703125-0.1665039-1.0820312-0.2529297
		c-0.3466797-0.078125-0.6611328-0.1904297-0.9375-0.3330078c-0.2714844-0.1425781-0.4941406-0.3300781-0.6611328-0.5576172
		c-0.1679688-0.2236328-0.2529297-0.5288086-0.2529297-0.9072266c0-0.3789062,0.0830078-0.6943359,0.2470703-0.9389648
		c0.1640625-0.2475586,0.3769531-0.4487305,0.6337891-0.5981445C27.6445312,1.0393066,27.9345703,0.9338379,28.25,0.8742676
		c0.7255859-0.1362305,1.4003906-0.1113281,1.9951172,0.0297852c0.3310547,0.0791016,0.6201172,0.2128906,0.859375,0.3974609
		c0.2402344,0.1855469,0.4365234,0.4287109,0.5810547,0.7226562c0.1455078,0.2949219,0.2285156,0.6650391,0.2441406,1.1000977
		l0.0009766,0.0288086h0.3007812l-0.0009766-0.03125c-0.0244141-0.4838867-0.1191406-0.8989258-0.2802734-1.2324219
		c-0.1630859-0.3369141-0.3828125-0.6113281-0.6513672-0.8164062c-0.2714844-0.2055664-0.5908203-0.3569336-0.9492188-0.4492188
		c-0.3583984-0.0927734-0.7558594-0.1391602-1.1796875-0.1391602c-0.3466797,0-0.6982422,0.0361328-1.0458984,0.1083984
		c-0.3505859,0.0727539-0.671875,0.1953125-0.953125,0.3642578c-0.2822266,0.1694336-0.5166016,0.4008789-0.6953125,0.6894531
		c-0.1787109,0.2890625-0.2695312,0.6523438-0.2695312,1.0795898c0,0.4199219,0.0869141,0.7670898,0.2568359,1.0317383
		c0.1708984,0.2641602,0.3994141,0.4775391,0.6787109,0.6352539c0.2763672,0.1567383,0.5927734,0.28125,0.9384766,0.3701172
		c0.3554688,0.090332,0.703125,0.175293,1.0341797,0.2524414c0.3818359,0.0917969,0.7089844,0.1665039,1.0302734,0.234375
		c0.3525391,0.0751953,0.6767578,0.1875,0.9648438,0.3334961c0.2871094,0.1464844,0.5263672,0.3457031,0.7109375,0.5927734
		c0.1845703,0.2460938,0.2773438,0.5859375,0.2773438,1.0097656c0,0.3603516-0.0810547,0.6748047-0.2421875,0.9345703
		c-0.1601562,0.2578125-0.3730469,0.4736328-0.6337891,0.6396484c-0.2617188,0.1660156-0.5595703,0.2871094-0.8867188,0.3623047
		c-0.328125,0.0751953-0.6640625,0.1132812-0.9970703,0.1132812c-0.4541016,0-0.8740234-0.0498047-1.2480469-0.1494141
		c-0.3769531-0.0986328-0.7041016-0.2607422-0.9755859-0.4814453c-0.2695312-0.21875-0.4833984-0.5078125-0.6337891-0.859375
		c-0.1494141-0.3515625-0.2255859-0.7861328-0.2255859-1.2929688V6.4226074h-0.2993164l-0.0004883,0.0302734
		c-0.0087891,0.5449219,0.0703125,1.0185547,0.2353516,1.40625c0.1660156,0.3876953,0.4033203,0.7089844,0.7070312,0.9560547
		c0.2998047,0.2441406,0.6630859,0.4257812,1.0810547,0.5410156c0.4111328,0.1113281,0.8691406,0.1689453,1.359375,0.1689453
		c0.3691406,0,0.7392578-0.0429688,1.1015625-0.1269531c0.3632812-0.0859375,0.6943359-0.2246094,0.9833984-0.4130859
		c0.2900391-0.1894531,0.5273438-0.4326172,0.7060547-0.7246094c0.1777344-0.2910156,0.2685547-0.6484375,0.2685547-1.0615234
		c0-0.453125-0.0800781-0.8183594-0.2382812-1.0854492C32,5.8444824,31.7832031,5.6262207,31.5175781,5.4655762z"/>
	<path d="M35.1328125,9.026123c-0.0947266,0.0039062-0.2041016,0.0058594-0.3242188,0.0058594
		c-0.0966797,0-0.1923828-0.0058594-0.2841797-0.0175781c-0.0908203-0.0117188-0.171875-0.046875-0.2490234-0.1074219
		c-0.0761719-0.0605469-0.140625-0.1542969-0.1904297-0.2773438c-0.0498047-0.1240234-0.0751953-0.3027344-0.0751953-0.5292969
		v-4.706543h1.3945312v-0.300293h-1.3945312V1.145752h-0.3007812v1.9477539h-1.1298828v0.300293h1.1298828v4.7543945
		c0,0.4482422,0.1025391,0.7607422,0.3046875,0.9316406c0.2011719,0.1679688,0.4482422,0.2529297,0.7353516,0.2529297
		c0.1845703,0,0.3134766-0.0039062,0.3828125-0.0126953c0.0673828-0.0087891,0.1376953-0.015625,0.2089844-0.0234375
		l0.0273438-0.0029297V8.9821777l-0.0410156,0.015625C35.3007812,9.0085449,35.2451172,9.0222168,35.1328125,9.026123z"/>
	<path d="M40.1044922,3.9460449c-0.2392578-0.2993164-0.5361328-0.5424805-0.8818359-0.7231445
		c-0.3486328-0.1821289-0.7539062-0.2739258-1.2041016-0.2739258c-0.4580078,0-0.8671875,0.0917969-1.2158203,0.2739258
		c-0.3457031,0.1806641-0.6425781,0.4238281-0.8818359,0.7231445c-0.2382812,0.2983398-0.4199219,0.6474609-0.5400391,1.0371094
		c-0.1201172,0.3891602-0.1816406,0.8027344-0.1816406,1.2290039c0,0.4282227,0.0615234,0.8413086,0.1816406,1.2290039
		c0.1201172,0.3896484,0.3017578,0.7392578,0.5400391,1.0390625c0.2392578,0.2988281,0.5361328,0.5400391,0.8818359,0.7167969
		c0.3476562,0.1777344,0.7529297,0.2675781,1.2041016,0.2675781c0.4589844,0,0.8681641-0.0898438,1.2158203-0.2675781
		c0.3457031-0.1767578,0.6425781-0.4179688,0.8818359-0.7167969c0.2382812-0.3007812,0.4189453-0.6503906,0.5390625-1.0390625
		c0.1210938-0.3867188,0.1826172-0.7998047,0.1826172-1.2290039c0-0.4272461-0.0615234-0.8408203-0.1826172-1.2290039
		C40.5234375,4.5944824,40.3417969,4.2453613,40.1044922,3.9460449z M40.3642578,7.3347168
		c-0.1074219,0.3564453-0.2705078,0.6748047-0.4824219,0.9453125c-0.2128906,0.2724609-0.4775391,0.4912109-0.7890625,0.6533203
		c-0.3085938,0.1611328-0.6699219,0.2421875-1.0742188,0.2421875c-0.4111328,0-0.7773438-0.0810547-1.0869141-0.2421875
		c-0.3115234-0.1621094-0.5761719-0.3808594-0.7890625-0.6533203c-0.2119141-0.2705078-0.3740234-0.5888672-0.4824219-0.9453125
		C35.5537109,6.9763184,35.5,6.5983887,35.5,6.2121582c0-0.3779297,0.0537109-0.7509766,0.1601562-1.1083984
		c0.1074219-0.3554688,0.2695312-0.6743164,0.4824219-0.9467773c0.2128906-0.2714844,0.4785156-0.4931641,0.7890625-0.6591797
		c0.3115234-0.1645508,0.6777344-0.2485352,1.0869141-0.2485352c0.4023438,0,0.7636719,0.0839844,1.0742188,0.2485352
		c0.3105469,0.1660156,0.5761719,0.3876953,0.7890625,0.6591797c0.2128906,0.2724609,0.375,0.5913086,0.4824219,0.9467773
		c0.1064453,0.3540039,0.1601562,0.7270508,0.1601562,1.1083984C40.5244141,6.6013184,40.4707031,6.979248,40.3642578,7.3347168z"/>
	<path d="M44.2392578,3.2512207V2.9494629l-0.0292969-0.0004883C44.1806641,2.947998,44.1523438,2.947998,44.1240234,2.947998
		c-0.3378906,0-0.6376953,0.0410156-0.890625,0.121582c-0.2763672,0.0883789-0.5205078,0.2114258-0.7265625,0.3657227
		c-0.2021484,0.1552734-0.3652344,0.3378906-0.4863281,0.5439453c-0.0996094,0.1689453-0.1777344,0.3481445-0.2333984,0.534668
		V3.0935059h-0.3007812v6.2392578h0.3007812V5.8044434c0-0.3339844,0.0478516-0.6625977,0.1425781-0.9775391
		c0.09375-0.3134766,0.2412109-0.5952148,0.4394531-0.8378906c0.1953125-0.2382812,0.4482422-0.4291992,0.7529297-0.5678711
		c0.3027344-0.1386719,0.6708984-0.1948242,1.0849609-0.171875L44.2392578,3.2512207z"/>
	<path d="M49.1298828,6.2614746c0.0166016-0.4223633-0.0263672-0.8374023-0.1269531-1.234375
		c-0.1015625-0.3945312-0.2646484-0.75-0.4863281-1.0561523c-0.2226562-0.3071289-0.5136719-0.5566406-0.8642578-0.7421875
		c-0.3525391-0.1860352-0.7753906-0.2797852-1.2578125-0.2797852c-0.3486328,0-0.6933594,0.0732422-1.0214844,0.2182617
		c-0.3300781,0.1445312-0.625,0.3598633-0.8769531,0.6396484c-0.2490234,0.2768555-0.453125,0.621582-0.6064453,1.0244141
		c-0.1523438,0.402832-0.2304688,0.8676758-0.2304688,1.3808594c0,0.4594727,0.0527344,0.8920898,0.1572266,1.2885742
		c0.1054688,0.3984375,0.2685547,0.7490234,0.4853516,1.0439453c0.2207031,0.296875,0.5058594,0.5283203,0.8486328,0.6884766
		c0.3251953,0.1542969,0.71875,0.2314453,1.1708984,0.2314453c0.0244141,0,0.0488281,0,0.0732422,0
		c0.7089844,0,1.3134766-0.203125,1.7988281-0.6015625c0.4833984-0.3984375,0.7744141-0.9697266,0.8632812-1.6972656
		l0.0048828-0.0341797h-0.2998047l-0.0039062,0.0253906c-0.1035156,0.6708984-0.3681641,1.1806641-0.7890625,1.5146484
		c-0.4208984,0.3349609-0.9589844,0.5039062-1.5986328,0.5039062c-0.4345703,0-0.8056641-0.0751953-1.1044922-0.2236328
		c-0.296875-0.1494141-0.5439453-0.3574219-0.734375-0.6171875c-0.1884766-0.2597656-0.3310547-0.5693359-0.421875-0.921875
		c-0.0898438-0.3417969-0.1396484-0.7197266-0.1494141-1.1220703h5.1689453L49.1298828,6.2614746z M43.9619141,5.9899902
		c0.0263672-0.4160156,0.1054688-0.7939453,0.2373047-1.1240234c0.1337891-0.3398438,0.3125-0.6342773,0.5283203-0.8759766
		c0.2167969-0.2402344,0.4726562-0.4257812,0.7597656-0.5507812c0.2851562-0.1259766,0.5976562-0.1899414,0.9316406-0.1899414
		c0.3955078,0,0.7470703,0.0737305,1.0458984,0.2192383c0.2978516,0.1459961,0.5507812,0.3476562,0.7519531,0.5991211
		c0.2011719,0.2519531,0.3544922,0.5498047,0.4580078,0.8852539c0.0996094,0.3291016,0.1513672,0.6782227,0.1542969,1.0371094
		H43.9619141z"/>
</g>
</svg>
